<?xml version="1.0" encoding="utf-8"?>
<!-- Generator: Adobe Illustrator 24.0.2, SVG Export Plug-In . SVG Version: 6.00 Build 0)  -->
<svg version="1.1" xmlns="http://www.w3.org/2000/svg" xmlns:xlink="http://www.w3.org/1999/xlink" x="0px" y="0px"
	 viewBox="0 0 327 450" style="enable-background:new 0 0 327 450;" xml:space="preserve">
<style type="text/css">
	.st0{fill:#FFFFFF;}
	.st1{fill:#F69A91;}
	.st2{fill:#94B9FE;}
	.st3{fill:#2C243C;}
	.st4{fill:#E85170;}
	.st5{fill:#FF6100;}
	.st6{fill:#C94C1B;}
	.st7{fill:#70878E;}
	.st8{fill:#5C7277;}
	.st9{fill:#0086B8;}
	.st10{fill:#007396;}
	.st11{fill:#4E4EB5;}
	.st12{fill:#373799;}
	.st13{fill:#AE79FF;}
	.st14{fill:#8E5DED;}
</style>
<g id="Girl">
	<path id="bg" class="st0" d="M14.6,48.4c-2.5,3-4,6.9-4,11.1c0,3,0.8,5.8,2.2,8.3c-3.6,1.7-6.1,5.3-6.1,9.5c0,2.3,0.8,4.5,2.1,6.2
		c-5.1,3.8-8.5,9.9-8.4,16.7c0,7.5,4.1,14.1,10.2,17.7c-2,3.2-3.1,6.9-3.1,11c0,4.2,1.3,8.2,3.5,11.4c-6.2,3.6-10.4,10.3-10.3,18
		c0,7.4,4,13.9,9.8,17.5c-5.8,3.7-9.7,10.2-9.7,17.6C0.7,200,4,206,9,209.7c-2.5,1.7-4.1,4.5-4.1,7.7c0,3.6,2.1,6.7,5.1,8.3
		c-0.6,1.7-1,3.6-1,5.6c0,4.6,1.9,8.7,4.9,11.7c-7.7,3-13.1,10.5-13,19.3c0,8.2,4.9,15.3,11.8,18.6c-6.8,4.4-11.3,12.1-11.3,20.9
		c0,10.7,6.9,19.8,16.4,23.2c-6,3.6-10,10.2-9.9,17.7c0,5.7,2.4,10.9,6.1,14.6c-2.4,1.7-3.9,4.5-3.9,7.6c0,4.5,3.3,8.3,7.6,9.1
		c-0.9,2-1.4,4.3-1.4,6.7c0,2.6,0.6,5,1.7,7.2c-0.6-0.1-1.3-0.2-2-0.2c-5.8,0-10.5,4.7-10.4,10.5c0,3.1,1.3,5.8,3.4,7.7
		c-5.5,4.5-9,11.4-9,19.1c0,13.6,11.1,24.7,24.7,24.7c9.9,0,18.4-5.8,22.4-14.2c3,2.6,6.9,4.1,11.2,4.1c3,0,5.8-0.8,8.3-2.1
		c1.6,3.6,5.3,6.1,9.5,6.1c2.3,0,4.5-0.8,6.2-2.1c3.8,5.1,9.8,8.5,16.7,8.5c7.5,0,14.1-4.1,17.7-10.1c3.2,2,6.9,3.2,10.9,3.2
		c4.2,0,8.2-1.3,11.4-3.5c3.6,6.2,10.2,10.4,17.9,10.4c7.4,0,13.9-3.9,17.5-9.8c3.6,5.9,10.1,9.8,17.5,9.8c6.7,0,12.7-3.2,16.5-8.2
		c1.7,2.5,4.5,4.1,7.7,4.1c3.6,0,6.8-2.1,8.3-5.1c1.7,0.6,3.6,1,5.5,1c4.6,0,8.7-1.9,11.7-4.9c3,7.7,10.5,13.1,19.2,13.1
		c8.2,0,15.3-4.8,18.6-11.7c4.4,6.8,12.1,11.4,20.8,11.4c13.6,0,24.7-11.1,24.7-24.7c0-9.9-5.9-18.5-14.3-22.4
		c2.5-3,4.1-6.9,4.1-11.1c0-3-0.8-5.8-2.1-8.3c3.6-1.6,6.1-5.3,6.1-9.5c0-2.3-0.8-4.5-2.1-6.2c5.1-3.8,8.5-9.8,8.5-16.7
		c0-7.5-4.1-14.1-10.1-17.7c2-3.2,3.2-6.9,3.2-10.9c0-4.2-1.3-8.2-3.5-11.4c6.2-3.6,10.4-10.2,10.4-17.9c0-7.4-3.9-13.9-9.8-17.5
		c5.9-3.6,9.8-10.1,9.8-17.5c0-6.7-3.2-12.7-8.2-16.5c2.5-1.7,4.1-4.5,4.1-7.7c0-3.6-2.1-6.8-5.1-8.3c0.6-1.7,1-3.6,1-5.5
		c0-4.6-1.9-8.7-4.9-11.7c7.7-3,13.1-10.5,13.1-19.2c0-8.2-4.8-15.3-11.7-18.6c6.8-4.4,11.4-12.1,11.4-20.8
		c0-10.7-6.8-19.8-16.3-23.2c6-3.6,10-10.2,10-17.7c0-5.7-2.3-10.9-6.1-14.6c2.4-1.7,3.9-4.5,3.9-7.6c0-4.5-3.2-8.3-7.5-9.1
		c0.9-2,1.4-4.3,1.4-6.7c0-2.6-0.6-5-1.7-7.2c0.6,0.1,1.3,0.2,2,0.2c5.8,0,10.5-4.7,10.5-10.5c0-3.5-1.7-6.6-4.3-8.5
		c5.1-4.5,8.2-11.1,8.2-18.4c0-13.6-11.1-24.7-24.7-24.7c-9,0-16.9,4.8-21.2,12C276,5.9,268.7,0.8,260.3,0.8c-8,0-15,4.6-18.4,11.3
		c-3.8-4.5-9.4-7.3-15.8-7.3c-4.6,0-8.9,1.5-12.3,4.1c-3.8-4.9-9.7-8.1-16.4-8.1c-7.8,0-14.6,4.3-18.1,10.8
		c-3.4-3.7-8.2-6.1-13.6-6.1c-5.7,0-10.9,2.6-14.2,6.8C148.1,5.5,141.2,0.8,133,0.8c-8.5,0-15.9,5.2-19,12.6C110.3,9.4,105,7,99.2,7
		c-3.8,0-7.4,1.1-10.5,2.9c-1.5-4.2-5.5-7.2-10.1-7.2c-4.5,0-8.4,2.8-10,6.8c-3.2-3.5-7.8-5.6-12.9-5.6c-5,0-9.4,2.1-12.6,5.4
		c-4.5-5-11.1-8.2-18.3-8.2C11.1,1.1,0,12.2,0,25.8C0,35.9,6,44.5,14.6,48.4z"/>
	<g id="bottom">
		<path class="st1" d="M223.8,30c-3.6-1.1-7.6,1-11.2,1.5c-5.5,0.8-10.4-0.2-15.8-1.3c-8.6-1.9-12.1,4.4-13.6,11.9
			c-0.2,1.1,0.8,1.7,1.6,1.6c3.6,3,6.9,6.3,10,9.8c0,0.2,0,0.4,0,0.6c-0.1,1.6,2.5,1.7,2.5,0.1c0-0.1,0-0.1,0-0.2
			c0.2-0.3,0.3-0.8,0.1-1.2c1.6-9.5,15.9-8.5,22.9-11c2.8-1,6.2-2.8,7.1-5.9C228.2,33.2,226.4,30.8,223.8,30z"/>
		<path class="st1" d="M167.4,1.2c-3.1-3.1-7.1,0.5-9.9,2.2c-4.7,2.9-9.4,5.8-14,8.8c-3.1,2-6.3,4.4-7.3,8.2
			c-2.4,8.8,6.4,14.8,9.9,21.9c0,0,0,0,0,0c-1.5,1-0.3,3.3,1.2,2.6c0.9,1.1,3,0.5,2.5-1.1c0-0.1-0.1-0.2-0.1-0.4
			c3.6-2.2,7.4-4,11.4-5.5c0.8-0.3,0.9-1,0.7-1.6c0-0.2,0-0.5-0.2-0.7c-2.8-5.3-6.2-11.8-2.4-17.5c2.2-3.3,5.9-5.4,8.1-8.8
			C168.8,7,169.8,3.5,167.4,1.2z"/>
		<path class="st2" d="M198.1,69.5l4.5-16.3l-23.2-20.2l-5.1,7.8c-8.4-9.4-14.2-15.3-14.2-15.3L140.8,39c0,0,6.3,17.2,12.4,34.2
			L143,88.7L84,196c0,0,72.6,6.5,86.9,5.2l0.2,3.5l55.9,14.1c0,0,4.9-23.2,10-66.4C239.8,129.8,218.9,96.4,198.1,69.5z"/>
		<path class="st3" d="M164.4,90.6l-8-14.9c-0.8-1.6-3.3-0.3-2.5,1.3l8,14.9C162.8,93.4,165.2,92.1,164.4,90.6z"/>
		<path class="st3" d="M193.8,63.6c-5-6-10-12-15.1-18c-1.2-1.4-3.2,0.5-2.1,1.9c5,6,10,12,15.1,18C192.9,66.9,194.9,65,193.8,63.6z
			"/>
		<path class="st3" d="M228.6,141.4c-3.8-3.7-8.6-5.8-13.9-6c-1.8,0-1.9,2.7-0.1,2.8c4.6,0.1,8.7,1.9,11.9,5.1
			C227.8,144.5,229.9,142.6,228.6,141.4z"/>
	</g>
	<g id="top">
		<path class="st1" d="M155.6,335.5c-1.8-2.2-1.7-3-4.5-3c-5.8,0-3.2-3.5-3.2-3.5s6.3,5.1,6.2,0c-0.1-3.3-5.3-4.8-8.9-5.5L84,286
			c0,0,9.7-38.8,9.7-51.3s-30.6-16-30.6-16s-24.3,57.5-7.4,79.9c15,19.8,63,37,73.8,40.7c2.9,4.9,9.3,11.4,21.9,9.8
			C157.4,348.3,158.7,339.2,155.6,335.5z"/>
		<path class="st1" d="M227.4,183.6c0,0-23.6,22-20.1,27.7c3.5,5.7,24.6,51.3,24.6,51.3L177.4,287c-4.3-1.4-8.7-1.7-13.1-0.9
			c-1.3,0.2-1.3,1.8-0.4,2.5c0.3,0.3,0.7,0.5,1.1,0.8c-4.6,0.5-8.9,2.6-12.2,6c-0.7,0.7-0.6,2.1,0.5,2.4c0.3,0.1,0.6,0.1,0.9,0.2
			c-0.7,0.6-1.4,1.3-2,2c-0.8,1,0.4,2.3,1.5,2.1c0.8-0.2,1.6-0.4,2.4-0.6c-0.2,0.4-0.4,0.9-0.5,1.4c-0.3,1,0.6,2,1.7,1.8
			c0.9-0.2,1.8-0.5,2.6-0.8c-0.2,0.4-0.3,0.8-0.4,1.3c-0.2,1.3,1.5,1.7,2.3,1.1c0.8-0.5,1.6-1,2.4-1.5c3.5,0.8,8.6-0.1,16.6-2.2
			c0,0,57.1-0.6,87.3-25.2C298.2,252.6,227.4,183.6,227.4,183.6z"/>
		<path class="st3" d="M255.6,254.4c-6.1-0.8-12.1,0.3-17.5,3.2c-1.6,0.8-0.3,3.3,1.3,2.5c5.1-2.6,10.5-3.6,16.2-2.8
			C257.3,257.4,257.4,254.6,255.6,254.4z"/>
		<path class="st4" d="M258.8,220.2c0,0-22.8-33.9-37.4-42c0,0,0,0,0,0c-7-5.7-19.7-14.4-35.2-17.5c-22.1-4.5-87.3-4.8-116.4,44.2
			l0,0c0,0-17.9,22.5-20,54l39.5,7.3l3.1-9.4c24.5,2.5,89.3,6.3,126.9-18l3,5L258.8,220.2z"/>
		<path class="st3" d="M214,214.1c-3.1-8.3-3.9-17.2-2.4-26c0.3-1.7-2.4-2.6-2.7-0.8c-1.7,9.5-0.8,19,2.6,28.1
			C212.2,217.1,214.6,215.8,214,214.1z"/>
		<path class="st3" d="M86.9,201.6c-0.9-1.6-3.3-0.3-2.5,1.3c3.5,6.4,5.6,13.3,6.1,20.7c0.1,1.8,2.9,1.9,2.8,0.1
			C92.8,215.8,90.7,208.5,86.9,201.6z"/>
		<path class="st3" d="M79.1,286.6c-4.6-2.2-9.6-2.8-14.5-1.5c-1.7,0.4-1.1,3.2,0.6,2.7c4.2-1.1,8.5-0.7,12.4,1.1
			C79.2,289.7,80.7,287.4,79.1,286.6z"/>
	</g>
	<g id="face">
		<path class="st1" d="M207.1,166.7c-0.7-4.3-4.8-6.9-8.4-6.3c-0.5-30.1-24.5-54.4-54-54.4c-29.8,0-54,24.8-54,55.4
			c0,3.3,0.3,6.5,0.8,9.6c-4-0.2-7.9,3.6-7.5,8.3c0.6,6.6,7.2,8.8,12.8,7.6c9,17.7,27.1,29.8,47.9,29.8c24.4,0,45-16.6,51.7-39.3
			C202.2,177.1,208.3,173.4,207.1,166.7z"/>
		<path class="st3" d="M207.9,107.1c-5.5-5.2-13.9-6.7-20.3-2.3c-2,1.4-3.5,3.3-4.5,5.4c-5.1-5.5-11.7-9.2-19.3-10.5
			c-6.6-1.1-15-0.5-20.8,3.5c-14.7-5.7-30.8-1.8-41.4,9.2c-0.9-1-2-1.8-3.1-2.5c-5.7-3.4-13.4-2.1-18.1,2.6
			c-4.7,4.7-5.9,12.5-3.2,18.6c2.3,5.1,7,8.6,12.3,9.7c-1.9,8.3-1.6,18.3,2.2,30.7c0,0,6.8-5.1,14-11.8c2.8,1.3,5.8-1.2,8-2.8
			c5.6-4.1,10.8-9,14-15.2c0.1,0,0.2-0.1,0.2-0.1c0,0.2,0,0.3,0,0.5c0.2,1.9,1.8,3.3,3.6,2.8c2.6-0.6,5.6-3.7,7.7-5.3
			c0.1-0.1,0.2-0.2,0.3-0.3c0,0.1,0,0.2,0,0.3c0.3,3.8,4.4,2.5,6.6,1.6c4.5-1.9,8.7-4.5,12.4-7.6c-0.4,1.5-0.4,3.3,1,4.3
			c1.9,1.4,3.9-0.2,5.1-1.7c1-1.2,1.9-2.5,2.9-3.8c7.6,8.3,24.2,25.9,31.1,30.4c0,0,3.1-13.8-1.6-28c5.3,0.8,11.6-2,14.7-5.8
			C217.2,122.3,213.4,112.3,207.9,107.1z"/>
		<path class="st3" d="M143.7,171.9c0,3-0.4,5.9-1.3,8.7c-0.6,1.7,2.1,2.5,2.7,0.8c1-3.1,1.5-6.2,1.5-9.4
			C146.5,170.2,143.7,170.1,143.7,171.9z"/>
		<path class="st3" d="M123.1,172.9c-0.1-2-1.2-4.7-3.7-4c-3.2,0.8-2.1,6.4-1.8,7.1c0.4,1,1.2,1.8,2.3,2
			C122.6,178.4,123.2,174.9,123.1,172.9z"/>
		<path class="st3" d="M170.4,169.8c-0.1-2-1.2-4.7-3.7-4c-3.2,0.9-2.1,6.4-1.8,7.1c0.4,1,1.2,1.8,2.3,2
			C169.9,175.3,170.5,171.9,170.4,169.8z"/>
		<path class="st3" d="M155.9,193.7c-3.9,4.1-9.4,5.7-14.9,4.2c-1.7-0.5-2.5,2.2-0.8,2.7c6.3,1.8,13,0,17.6-4.8
			C159,194.5,157.1,192.4,155.9,193.7z"/>
		<path class="st3" d="M124.1,157.7c-3.5-0.4-6.9,0.2-10.1,1.6c-2.5,1-0.5,4.7,1.9,3.7c2.6-1.1,5.3-1.4,8.1-1.1
			C126.7,162.1,126.8,157.9,124.1,157.7z"/>
		<path class="st3" d="M175.1,156.3c-2.8-1.7-5.9-2.7-9.2-2.9c-2.7-0.1-2.8,4-0.1,4.2c2.6,0.1,4.9,0.9,7.1,2.2
			C175.2,161.3,177.4,157.7,175.1,156.3z"/>
	</g>
	<g id="static-ball-orange">
		<circle class="st5" cx="169.3" cy="367.5" r="6.7"/>
		<g>
			<path class="st6" d="M172,371.9c-3.4,0-5.9-3.1-6-3.3c-0.3-0.4-0.3-1.1,0.2-1.4s1.1-0.3,1.4,0.2l0,0c0,0,2.7,3.3,5.5,2.3
				c0.5-0.2,1.1,0.1,1.3,0.6c0.2,0.5-0.1,1.1-0.6,1.3C173.1,371.8,172.5,371.9,172,371.9z"/>
		</g>
	</g>
	<g id="static-ball-grey">
		<circle class="st7" cx="197.4" cy="395.3" r="7.2"/>
		<g>
			<path class="st8" d="M200.1,397.2C200.1,397.2,200.1,397.2,200.1,397.2c-3.2,0.7-5.4-1.3-6.1-2.5c-0.3-0.5-0.1-1.1,0.3-1.4
				c0.5-0.3,1.1-0.1,1.4,0.3c0.1,0.1,1.4,2.2,3.9,1.6c0.5-0.1,1.1,0.2,1.2,0.7C201,396.5,200.7,397.1,200.1,397.2z"/>
		</g>
	</g>
</g>
<g id="ball-blue">
	<circle class="st9" cx="223.8" cy="360.6" r="10.1"/>
	<g>
		<path class="st10" d="M228.8,367.4c-5.6,1.4-9.4-2.6-10.7-4.8c-0.3-0.5-0.1-1.1,0.4-1.4c0.5-0.3,1.1-0.1,1.4,0.4l0,0
			c0.1,0.2,3,5.2,8.5,3.9c0.5-0.1,1.1,0.2,1.2,0.7C229.7,366.7,229.3,367.2,228.8,367.4z"/>
	</g>
	<g>
		<path class="st10" d="M230.5,362.7C230.5,362.7,230.5,362.7,230.5,362.7c-3.2,0.7-5.4-1.3-6.1-2.5c-0.3-0.5-0.1-1.1,0.3-1.4
			c0.5-0.3,1.1-0.1,1.4,0.3c0.1,0.1,1.4,2.2,3.9,1.6c0.5-0.1,1.1,0.2,1.2,0.7C231.3,362,231,362.5,230.5,362.7z"/>
	</g>
</g>
<g id="ball-dark">
	<circle class="st11" cx="103.5" cy="371" r="10.2"/>
	<g>
		<path class="st12" d="M107,379.4c-5.8,0-8.5-4.7-9.2-7.3c-0.1-0.5,0.2-1.1,0.7-1.2c0.5-0.1,1.1,0.2,1.2,0.7
			c0.1,0.2,1.6,5.8,7.3,5.8c0.6,0,1,0.4,1,1S107.6,379.4,107,379.4z"/>
	</g>
	<g>
		<path class="st12" d="M109.8,375.2C109.8,375.2,109.8,375.2,109.8,375.2c-3.2,0-4.9-2.6-5.3-3.9c-0.2-0.5,0.1-1.1,0.7-1.3
			c0.5-0.2,1.1,0.1,1.3,0.6c0,0.1,0.9,2.5,3.4,2.5c0.6,0,1,0.5,1,1C110.8,374.8,110.3,375.2,109.8,375.2z"/>
	</g>
</g>
<g id="ball-purple">
	<circle class="st13" cx="183.2" cy="345.1" r="7.1"/>
	<g>
		<path class="st14" d="M185.9,350.3C185.9,350.3,185.9,350.3,185.9,350.3c-3.2,0.7-5.4-1.3-6.1-2.5c-0.3-0.5-0.1-1.1,0.3-1.4
			c0.5-0.3,1.1-0.1,1.4,0.3c0.1,0.1,1.4,2.2,3.9,1.6c0.5-0.1,1.1,0.2,1.2,0.7C186.8,349.7,186.4,350.2,185.9,350.3z"/>
	</g>
	<g>
		<path class="st14" d="M189,346.1C189,346.1,189,346.1,189,346.1c-3.2,0.7-5.4-1.3-6.1-2.5c-0.3-0.5-0.1-1.1,0.3-1.4
			c0.5-0.3,1.1-0.1,1.4,0.3c0.1,0.1,1.4,2.2,3.9,1.6c0.5-0.1,1.1,0.2,1.2,0.7C189.8,345.4,189.5,346,189,346.1z"/>
	</g>
</g>
</svg>
